<svg xmlns="http://www.w3.org/2000/svg" viewBox="0 0 48 48" width="48" height="48">
  <!-- 背景圆 -->
  <circle cx="24" cy="24" r="20" fill="#07C160" />
  
  <!-- 麦克风主体 -->
  <path d="M24 32c-2.21 0-4-1.79-4-4V20c0-2.21 1.79-4 4-4s4 1.79 4 4v8c0 2.21-1.79 4-4 4z" fill="white" />
  
  <!-- 麦克风底部 -->
  <path d="M24 36c-1.1 0-2-.9-2-2v-4c0-1.1.9-2 2-2s2 .9 2 2v4c0 1.1-.9 2-2 2z" fill="white" />
  
  <!-- 声波效果（无限信号风格） -->
  <path d="M18 24a2 2 0 1 0-4 0 2 2 0 0 0 4 0zm8 0a2 2 0 1 0-4 0 2 2 0 0 0 4 0zm8 0a2 2 0 1 0-4 0 2 2 0 0 0 4 0zm8 0a2 2 0 1 0-4 0 2 2 0 0 0 4 0z" fill="white" />
</svg>